HIERARCHY
ROOT SpineBase
{
  OFFSET 0.000000 0.000000 0.000000
  CHANNELS 6 Xposition Yposition Zposition Zrotation Xrotation Yrotation
  JOINT SpineMid
  {
    OFFSET 0.000000 26.521971 0.000000
    CHANNELS 3 Zrotation Xrotation Yrotation
    JOINT SpineShoulder
    {
      OFFSET 0.146632 19.854501 -0.687667
      CHANNELS 3 Zrotation Xrotation Yrotation
      JOINT Neck
      {
        OFFSET -0.021497 6.602905 -0.559643
        CHANNELS 3 Zrotation Xrotation Yrotation
        JOINT Head
        {
          OFFSET 1.707796 12.271628 0.512580
          CHANNELS 3 Zrotation Xrotation Yrotation
          End Site
          {
            OFFSET 0 0 0
          }
        }
      }
      JOINT ShoulderLeft
      {
        OFFSET -11.501950 -2.783631 -7.691896
        CHANNELS 3 Zrotation Xrotation Yrotation
        JOINT ElbowLeft
        {
          OFFSET -1.491276 -22.957393 -5.297437
          CHANNELS 3 Zrotation Xrotation Yrotation
          JOINT WristLeft
          {
            OFFSET 7.006910 -15.400842 -4.891950
            CHANNELS 3 Zrotation Xrotation Yrotation
            JOINT HandLeft
            {
              OFFSET 3.417008 -6.144522 -0.470883
              CHANNELS 3 Zrotation Xrotation Yrotation
              JOINT HandTipLeft
              {
                OFFSET 2.839832 -5.583547 -0.893357
                CHANNELS 3 Zrotation Xrotation Yrotation
                End Site
                {
                  OFFSET 0 0 0
                }
              }
              JOINT ThumbLeft
              {
                OFFSET -1.142759 -0.494445 -0.702279
                CHANNELS 3 Zrotation Xrotation Yrotation
                End Site
                {
                  OFFSET 0 0 0
                }
              }
            }
          }
        }
      }
      JOINT ShoulderRight
      {
        OFFSET 13.411525 -3.016530 4.363768
        CHANNELS 3 Zrotation Xrotation Yrotation
        JOINT ElbowRight
        {
          OFFSET 0.667348 -24.557340 1.455664
          CHANNELS 3 Zrotation Xrotation Yrotation
          JOINT WristRight
          {
            OFFSET 3.292477 -21.071063 -2.028246
            CHANNELS 3 Zrotation Xrotation Yrotation
            JOINT HandRight
            {
              OFFSET -2.233646 -5.557756 -2.070178
              CHANNELS 3 Zrotation Xrotation Yrotation
              JOINT HandTipRight
              {
                OFFSET 0.701025 -5.419401 -0.457391
                CHANNELS 3 Zrotation Xrotation Yrotation
                End Site
                {
                  OFFSET 0 0 0
                }
              }
              JOINT ThumbRight
              {
                OFFSET 1.530362 -0.085526 -1.612056
                CHANNELS 3 Zrotation Xrotation Yrotation
                End Site
                {
                  OFFSET 0 0 0
                }
              }
            }
          }
        }
      }
    }
  }
  JOINT HipLeft
  {
    OFFSET -5.486594 0.969495 -5.268562
    CHANNELS 3 Zrotation Xrotation Yrotation
    JOINT KneeLeft
    {
      OFFSET -2.818311 -28.709507 -4.834052
      CHANNELS 3 Zrotation Xrotation Yrotation
      JOINT AnkleLeft
      {
        OFFSET -2.662262 -36.003419 13.369637
        CHANNELS 3 Zrotation Xrotation Yrotation
        JOINT FootLeft
        {
          OFFSET 3.955525 -1.499452 -13.589379
          CHANNELS 3 Zrotation Xrotation Yrotation
          End Site
          {
            OFFSET 0 0 0
          }
        }
      }
    }
  }
  JOINT HipRight
  {
    OFFSET 5.250693 0.671118 -0.833149
    CHANNELS 3 Zrotation Xrotation Yrotation
    JOINT KneeRight
    {
      OFFSET -1.713762 -28.581974 -0.162209
      CHANNELS 3 Zrotation Xrotation Yrotation
      JOINT AnkleRight
      {
        OFFSET -8.385200 -33.135878 3.174597
        CHANNELS 3 Zrotation Xrotation Yrotation
        JOINT FootRight
        {
          OFFSET 3.068984 -3.144283 -10.534847
          CHANNELS 3 Zrotation Xrotation Yrotation
          End Site
          {
            OFFSET 0 0 0
          }
        }
      }
    }
  }
}
MOTION
Frames: 12
Frame Time: 0.033333
15.686607 70.072059 361.087743 -0.000000 0.000000 -22.444790 -0.000000 0.000000 22.444790 -0.000000 0.000000 0.000000 -0.000000 0.000000 0.000000 0.000000 0.000000 0.000000 -0.000000 0.000000 0.000000 -0.000000 0.000000 0.000000 -0.000000 0.000000 0.000000 -0.000000 0.000000 0.000000 0.000000 0.000000 0.000000 0.000000 0.000000 0.000000 -0.000000 0.000000 0.000000 -0.000000 0.000000 0.000000 -0.000000 0.000000 0.000000 -0.000000 0.000000 0.000000 0.000000 0.000000 0.000000 0.000000 0.000000 0.000000 -0.000000 0.000000 22.444790 -0.000000 0.000000 0.000000 -0.000000 0.000000 0.000000 0.000000 0.000000 0.000000 -0.000000 0.000000 22.444790 -0.000000 0.000000 0.000000 -0.000000 0.000000 0.000000 0.000000 0.000000 0.000000
15.769294 70.130298 361.123361 0.211331 -0.103885 -23.239799 -0.235175 0.012068 23.240016 -0.000000 0.000000 0.000000 -0.000000 0.000000 0.000000 0.000000 0.000000 0.000000 -0.000000 0.000000 0.000000 -1.564652 -1.084630 -0.011374 -4.704682 -1.030857 -0.734803 3.180172 1.579409 0.902584 0.000000 0.000000 0.000000 0.000000 0.000000 0.000000 0.985254 -0.504499 0.049007 -1.681007 1.877644 0.255558 2.236227 -0.958076 -0.990227 -3.435001 -1.606657 0.722778 0.000000 0.000000 0.000000 0.000000 0.000000 0.000000 -0.235175 0.012068 23.240016 -1.092503 0.050753 -0.408753 -0.632239 -6.520846 -2.089753 0.000000 0.000000 0.000000 -0.235175 0.012068 23.240016 -0.000000 0.000000 0.000000 -0.699337 -1.032146 1.379159 0.000000 0.000000 0.000000
15.833546 70.180602 361.149207 0.376957 -0.199248 -23.876273 -0.425345 0.029615 23.877038 -0.000000 0.000000 0.000000 -0.000000 0.000000 0.000000 0.000000 0.000000 0.000000 -0.000000 0.000000 0.000000 -2.985441 -1.909669 0.030346 -9.352976 -1.960143 -1.434338 6.592017 2.981101 1.596771 0.000000 0.000000 0.000000 0.000000 0.000000 0.000000 1.773984 -0.901074 0.094543 -2.981067 3.555136 0.510803 4.204675 -1.619475 -1.950196 -6.394948 -2.746826 1.510726 0.000000 0.000000 0.000000 0.000000 0.000000 0.000000 -0.425345 0.029615 23.877038 -2.136495 0.119593 -0.799273 -1.995956 -14.274143 -5.059869 0.000000 0.000000 0.000000 -0.425345 0.029615 23.877038 -1.119849 -0.927771 0.118040 -0.072557 -0.882322 2.234522 0.000000 0.000000 0.000000
15.879361 70.222973 361.165280 0.496826 -0.286066 -24.358056 -0.570585 0.055684 24.359573 -0.000000 0.000000 0.000000 -0.929217 -0.048707 0.045147 0.000000 0.000000 0.000000 -0.000000 0.000000 0.000000 -4.299203 -2.517421 0.129318 -13.404520 -2.567313 -1.986162 9.810405 4.009033 2.009722 0.000000 0.000000 0.000000 0.000000 0.000000 0.000000 2.364819 -1.189513 0.132268 -3.907389 5.045720 0.750929 5.958527 -1.980678 -2.924832 -8.990931 -3.456609 2.394851 0.000000 0.000000 0.000000 0.000000 0.000000 0.000000 -0.570585 0.055684 24.359573 -3.123351 0.205816 -1.168115 -4.437153 -23.056955 -9.224957 0.000000 0.000000 0.000000 -0.570585 0.055684 24.359573 -1.528768 -1.277294 0.159017 0.072059 -0.992190 2.690811 0.000000 0.000000 0.000000
15.906741 70.257409 361.171581 0.570905 -0.364323 -24.688173 -0.670891 0.092552 24.690530 -0.000000 0.000000 0.000000 -1.169304 0.008962 0.047619 0.000000 0.000000 0.000000 -0.000000 0.000000 0.000000 -5.535722 -2.938328 0.289234 -16.374122 -2.702272 -2.262757 12.451446 4.495878 2.117441 0.000000 0.000000 0.000000 0.000000 0.000000 0.000000 2.756988 -1.369891 0.158976 -4.463711 6.361955 0.964860 7.544909 -2.030054 -3.957751 -11.316285 -3.743910 3.404198 0.000000 0.000000 0.000000 0.000000 0.000000 0.000000 -0.670891 0.092552 24.690530 -4.044532 0.308490 -1.511929 -8.367663 -32.262566 -14.936654 0.000000 0.000000 0.000000 -1.470685 0.601970 24.650522 -1.324089 -2.349346 0.213411 0.357299 -0.819546 2.642558 0.000000 0.000000 0.000000
15.915685 70.283911 361.168110 0.599179 -0.434006 -24.868792 -0.726137 0.141762 24.871960 -0.000000 0.000000 0.000000 -1.371902 0.103607 0.044053 0.000000 0.000000 0.000000 -0.000000 0.000000 0.000000 -6.719990 -3.193936 0.514200 -17.894046 -2.281486 -2.166144 14.228544 4.330438 1.926556 0.000000 0.000000 0.000000 0.000000 0.000000 0.000000 2.950115 -1.442375 0.172605 -4.650648 7.515440 1.144750 9.008881 -1.746532 -5.095007 -13.454310 -3.587782 4.569189 0.000000 0.000000 0.000000 0.000000 0.000000 0.000000 -0.726137 0.141762 24.871960 -4.891693 0.426492 -1.827521 -14.136300 -40.942315 -22.465240 0.000000 0.000000 0.000000 -1.585839 0.717780 24.828459 -1.513018 -2.636770 0.236494 0.786750 -0.356615 2.084156 0.000000 0.000000 0.000000
15.877927 70.290320 361.145127 0.538340 -0.467258 -24.866506 -0.684917 0.197544 24.869882 -0.000000 0.000000 0.000000 -1.418844 0.265808 0.025521 0.000000 0.000000 0.000000 -1.255182 -0.477604 0.315517 -7.286916 -3.031946 0.621359 -18.465261 -1.254285 -1.777296 15.961281 4.202661 1.812292 0.000000 0.000000 0.000000 0.000000 0.000000 0.000000 2.737755 -0.941307 0.159047 -4.245971 7.544310 1.171507 11.063330 -1.113403 -6.373959 -15.577878 -0.265857 6.423594 0.000000 0.000000 0.000000 0.000000 0.000000 0.000000 -0.684917 0.197544 24.869882 -6.003479 0.593806 -2.239506 -26.316569 -51.185888 -36.919339 0.000000 0.000000 0.000000 -1.441724 0.768758 24.828651 -1.524675 -2.539605 0.233382 1.979307 1.693903 -0.269859 0.000000 0.000000 0.000000
15.807848 70.290961 361.099357 0.408645 -0.467543 -24.664630 0.322283 0.136174 24.694321 -0.758114 0.478669 -0.026629 -1.571193 0.479773 0.005431 0.000000 0.000000 0.000000 -2.179265 -0.973897 0.548062 -8.235136 -2.772669 0.891255 -14.859843 0.560136 -1.108221 13.206585 1.790756 0.924502 0.000000 0.000000 0.000000 0.000000 0.000000 0.000000 2.231398 -0.639024 0.127255 -3.349150 8.370909 1.296787 12.592863 -0.757808 -7.683708 -16.534026 2.149832 8.038623 0.000000 0.000000 0.000000 0.000000 0.000000 0.000000 -0.566476 0.254344 24.667555 -6.890461 0.782529 -2.567221 -40.518653 -56.843078 -53.129930 0.000000 0.000000 0.000000 -0.566476 0.254344 24.667555 -1.886548 -1.644961 0.207302 2.946190 2.590563 -2.782556 0.000000 0.000000 0.000000
15.815433 70.317715 361.101898 0.400605 -0.533745 -24.492711 0.382582 0.123257 24.524453 -0.799556 0.580621 -0.027934 -1.760513 0.640738 -0.005770 0.000000 0.000000 0.000000 -3.494773 -1.766059 0.868871 -7.912267 -1.820062 1.057959 -10.601994 2.324083 -0.402887 10.108539 0.991198 0.870938 0.000000 0.000000 0.000000 0.000000 0.000000 0.000000 2.027305 -0.706260 0.113391 -2.590445 9.787045 1.429779 13.240985 1.122564 -9.584903 -18.630955 1.238357 9.469507 0.000000 0.000000 0.000000 0.000000 0.000000 0.000000 -0.585843 0.319618 24.496211 -7.412655 0.988162 -2.760628 -50.440261 -58.622709 -64.513350 0.000000 0.000000 0.000000 -0.585843 0.319618 24.496211 -1.956337 -1.473281 0.159355 4.561033 4.173268 -5.786866 0.000000 0.000000 0.000000
15.748834 70.358124 361.076700 0.289082 -0.612826 -24.175580 0.449771 0.063045 24.205440 -0.724866 0.739873 -0.025895 -2.020867 0.777472 -0.010040 0.000000 0.000000 0.000000 -4.929473 -2.566439 1.197230 -6.438986 -0.423216 1.105006 -5.023855 5.792586 1.581989 5.159423 -4.088820 -1.987642 0.000000 0.000000 0.000000 0.000000 0.000000 0.000000 1.900323 -1.260827 0.099192 -1.791152 12.096771 1.603188 14.109202 3.079758 -11.823950 -21.320982 2.277498 11.364025 0.000000 0.000000 0.000000 0.000000 0.000000 0.000000 -0.514714 0.440676 24.179105 -7.709761 1.169147 -2.870942 -60.129623 -59.129163 -75.413916 0.000000 0.000000 0.000000 -0.514714 0.440676 24.179105 -2.634932 -2.052207 0.218046 5.639208 5.411152 -6.394562 0.000000 0.000000 0.000000
15.687206 70.460125 361.020317 0.146707 -0.674695 -23.875082 0.486561 -0.006865 23.900505 -0.588494 0.878160 -0.022364 -2.354388 0.827404 0.000209 0.000000 0.000000 0.000000 -6.913778 -3.696358 1.619724 -3.131925 2.113070 1.007343 1.349987 6.676918 1.607674 3.160973 -3.821947 -2.017422 0.000000 0.000000 0.000000 0.000000 0.000000 0.000000 1.814311 -2.229724 0.082134 -1.515888 15.127246 1.916988 15.891304 6.379421 -15.040278 -24.886605 1.386099 13.208091 0.000000 0.000000 0.000000 0.000000 0.000000 0.000000 -0.407248 0.557575 23.877927 -7.234121 1.236116 -2.700878 -50.135887 -58.001653 -65.051354 0.000000 0.000000 0.000000 -1.106929 1.249173 23.836111 -2.073576 -3.321005 0.338554 5.066965 5.286029 -5.845080 0.000000 0.000000 0.000000
15.758553 70.491214 360.919281 0.104269 -0.718417 -23.211380 0.497610 -0.043631 23.235579 -0.544033 0.954859 -0.021367 -2.735925 0.959164 0.003705 0.000000 0.000000 0.000000 -8.570069 -4.839958 1.942268 1.064936 4.898544 0.542337 6.235101 10.072338 3.559736 2.685528 -4.148864 -2.546541 0.000000 0.000000 0.000000 0.000000 0.000000 0.000000 1.667462 -3.546298 0.053949 -0.665118 19.698405 2.255705 15.844870 7.846862 -17.316037 -27.218099 -2.393397 13.485828 0.000000 0.000000 0.000000 0.000000 0.000000 0.000000 -0.472734 -0.192635 23.352526 -6.532248 1.797522 -2.645857 -40.451261 -56.199666 -54.450314 0.000000 0.000000 0.000000 -2.096229 2.046924 23.140584 -0.527083 -4.808626 0.601509 2.129526 2.722503 -2.549746 0.000000 0.000000 0.000000
